<svg width="24" height="25" viewBox="0 0 24 25" fill="none" xmlns="http://www.w3.org/2000/svg">
<g opacity="0.3">
<path d="M12.0002 1.7168C6.04805 1.7168 1.22266 6.5417 1.22266 12.4943C1.22266 18.4469 6.04805 23.2719 12.0002 23.2719C17.9523 23.2719 22.7777 18.4469 22.7777 12.4943C22.7777 6.5417 17.9523 1.7168 12.0002 1.7168ZM17.2583 17.2533C17.0852 17.5598 16.7668 17.7322 16.4386 17.7322C16.2851 17.7322 16.1267 17.6938 15.9813 17.613C14.6358 16.8586 13.1694 16.3964 11.6197 16.2395C10.0668 16.0839 8.53341 16.2415 7.06048 16.7118C6.56896 16.8687 6.03989 16.5971 5.88313 16.1048C5.72473 15.6116 5.99743 15.0844 6.49058 14.9266C8.20846 14.3778 9.9998 14.1911 11.8091 14.375C13.6152 14.5589 15.3265 15.0978 16.8974 15.9782C17.3498 16.23 17.5114 16.8013 17.2583 17.2533ZM18.5483 13.9797C18.3818 14.3002 18.0552 14.4841 17.7172 14.4841C17.5702 14.4841 17.4232 14.4504 17.2844 14.3778C15.6302 13.5162 13.8438 12.9827 11.9708 12.7927C10.0831 12.5995 8.21336 12.7678 6.41057 13.2878C5.91252 13.4292 5.39324 13.1444 5.25117 12.6465C5.10747 12.1494 5.39486 11.6302 5.89128 11.4866C7.92595 10.8999 10.0357 10.7119 12.1602 10.9275C14.27 11.1424 16.2851 11.7433 18.1515 12.7159C18.6088 12.9551 18.7884 13.5208 18.5483 13.9797ZM19.0154 11.2562C18.8749 11.2562 18.7329 11.2245 18.5973 11.1579C16.6345 10.1791 14.5231 9.56953 12.3202 9.34598C10.1141 9.12031 7.91942 9.29471 5.79494 9.862C5.29526 9.99459 4.7825 9.69821 4.6486 9.19771C4.5147 8.69786 4.81191 8.18397 5.31323 8.05055C7.65652 7.4248 10.0798 7.23424 12.5113 7.48147C14.9395 7.72723 17.2681 8.40017 19.4334 9.48005C19.8972 9.71095 20.085 10.2742 19.8547 10.7369C19.6914 11.0663 19.3599 11.2562 19.0154 11.2562Z" fill="white"/>
</g>
</svg>
