<svg width="24" height="25" viewBox="0 0 24 25" fill="none" xmlns="http://www.w3.org/2000/svg">
<g opacity="0.3">
<path d="M12 2.49426C14.717 2.49426 15.056 2.50426 16.122 2.55426C17.187 2.60426 17.912 2.77126 18.55 3.01926C19.21 3.27326 19.766 3.61726 20.322 4.17226C20.8305 4.67216 21.224 5.27685 21.475 5.94426C21.722 6.58126 21.89 7.30726 21.94 8.37226C21.987 9.43826 22 9.77726 22 12.4943C22 15.2113 21.99 15.5503 21.94 16.6163C21.89 17.6813 21.722 18.4063 21.475 19.0443C21.2247 19.712 20.8311 20.3169 20.322 20.8163C19.822 21.3246 19.2173 21.718 18.55 21.9693C17.913 22.2163 17.187 22.3843 16.122 22.4343C15.056 22.4813 14.717 22.4943 12 22.4943C9.283 22.4943 8.944 22.4843 7.878 22.4343C6.813 22.3843 6.088 22.2163 5.45 21.9693C4.78233 21.7187 4.17753 21.3252 3.678 20.8163C3.16941 20.3164 2.77593 19.7117 2.525 19.0443C2.277 18.4073 2.11 17.6813 2.06 16.6163C2.013 15.5503 2 15.2113 2 12.4943C2 9.77726 2.01 9.43826 2.06 8.37226C2.11 7.30626 2.277 6.58226 2.525 5.94426C2.77524 5.27644 3.1688 4.67158 3.678 4.17226C4.17767 3.66349 4.78243 3.26999 5.45 3.01926C6.088 2.77126 6.812 2.60426 7.878 2.55426C8.944 2.50726 9.283 2.49426 12 2.49426ZM12 7.49426C10.6739 7.49426 9.40215 8.02105 8.46447 8.95873C7.52678 9.89641 7 11.1682 7 12.4943C7 13.8203 7.52678 15.0921 8.46447 16.0298C9.40215 16.9675 10.6739 17.4943 12 17.4943C13.3261 17.4943 14.5979 16.9675 15.5355 16.0298C16.4732 15.0921 17 13.8203 17 12.4943C17 11.1682 16.4732 9.89641 15.5355 8.95873C14.5979 8.02105 13.3261 7.49426 12 7.49426ZM18.5 7.24426C18.5 6.91274 18.3683 6.5948 18.1339 6.36038C17.8995 6.12596 17.5815 5.99426 17.25 5.99426C16.9185 5.99426 16.6005 6.12596 16.3661 6.36038C16.1317 6.5948 16 6.91274 16 7.24426C16 7.57578 16.1317 7.89373 16.3661 8.12815C16.6005 8.36257 16.9185 8.49426 17.25 8.49426C17.5815 8.49426 17.8995 8.36257 18.1339 8.12815C18.3683 7.89373 18.5 7.57578 18.5 7.24426ZM12 9.49426C12.7956 9.49426 13.5587 9.81033 14.1213 10.3729C14.6839 10.9356 15 11.6986 15 12.4943C15 13.2899 14.6839 14.053 14.1213 14.6156C13.5587 15.1782 12.7956 15.4943 12 15.4943C11.2044 15.4943 10.4413 15.1782 9.87868 14.6156C9.31607 14.053 9 13.2899 9 12.4943C9 11.6986 9.31607 10.9356 9.87868 10.3729C10.4413 9.81033 11.2044 9.49426 12 9.49426Z" fill="white"/>
</g>
</svg>
