<svg width="24" height="25" viewBox="0 0 24 25" fill="none" xmlns="http://www.w3.org/2000/svg">
<g opacity="0.3" clip-path="url(#clip0_450_645)">
<path d="M21.053 17.8986C20.7138 18.6789 20.3122 19.3971 19.8469 20.0574C19.2126 20.9576 18.6933 21.5807 18.2931 21.9268C17.6727 22.4947 17.008 22.7856 16.2962 22.8021C15.7852 22.8021 15.1689 22.6574 14.4516 22.3638C13.7319 22.0715 13.0705 21.9268 12.4657 21.9268C11.8315 21.9268 11.1513 22.0715 10.4237 22.3638C9.69497 22.6574 9.10794 22.8104 8.65912 22.8256C7.97654 22.8545 7.29617 22.5554 6.61705 21.9268C6.1836 21.5504 5.64144 20.9052 4.99196 19.9913C4.29512 19.0152 3.72221 17.8835 3.27339 16.5931C2.79272 15.1994 2.55176 13.8498 2.55176 12.5432C2.55176 11.0465 2.87664 9.75565 3.52737 8.6739C4.03878 7.805 4.71915 7.11959 5.57068 6.61641C6.42221 6.11324 7.34229 5.85683 8.33313 5.84043C8.87529 5.84043 9.58626 6.00737 10.4698 6.33547C11.3508 6.66466 11.9165 6.83161 12.1645 6.83161C12.35 6.83161 12.9784 6.6364 14.0437 6.24724C15.0512 5.88633 15.9015 5.7369 16.5981 5.79576C18.4856 5.9474 19.9036 6.6881 20.8467 8.02254C19.1586 9.04074 18.3235 10.4668 18.3402 12.2963C18.3554 13.7213 18.8747 14.9072 19.8953 15.8487C20.3579 16.2857 20.8744 16.6235 21.4491 16.8633C21.3245 17.2231 21.1929 17.5678 21.053 17.8986ZM16.7241 0.941054C16.7241 2.05797 16.3142 3.10083 15.4971 4.06609C14.5111 5.2136 13.3185 5.87668 12.0252 5.77205C12.0087 5.63806 11.9992 5.49703 11.9992 5.34884C11.9992 4.2766 12.4681 3.12909 13.3008 2.19085C13.7165 1.7158 14.2452 1.3208 14.8864 1.00571C15.5262 0.695313 16.1314 0.523658 16.7005 0.494263C16.7171 0.643577 16.7241 0.792901 16.7241 0.94104V0.941054Z" fill="white"/>
</g>
<defs>
<clipPath id="clip0_450_645">
<rect width="24" height="24" fill="white" transform="translate(0 0.494263)"/>
</clipPath>
</defs>
</svg>
