<svg width="74" height="73" viewBox="0 0 74 73" fill="none" xmlns="http://www.w3.org/2000/svg">
<path d="M60.025 36.7163C60.0254 36.3815 59.9246 36.0517 59.7311 35.7547C59.5377 35.4578 59.2573 35.2027 58.9139 35.011L32.8938 20.454C32.5037 20.236 32.0463 20.1077 31.5713 20.0831C31.0964 20.0585 30.6221 20.1384 30.2 20.3143C29.778 20.4901 29.4243 20.7551 29.1776 21.0804C28.9309 21.4057 28.8006 21.7788 28.8008 22.1592V51.2733C28.7997 51.654 28.9294 52.0276 29.1759 52.3534C29.4224 52.6791 29.7762 52.9445 30.1986 53.1205C30.621 53.2964 31.0957 53.3763 31.571 53.3512C32.0463 53.3262 32.5039 53.1973 32.8938 52.9786L58.9139 38.4215C59.2579 38.2304 59.5388 37.9753 59.7323 37.6783C59.9258 37.3813 60.0262 37.0512 60.025 36.7163Z" fill="#FF0000"/>
</svg>
